<svg xmlns="http://www.w3.org/2000/svg" viewBox="0 0 1600 900" preserveAspectRatio="xMidYMid slice"><defs></defs><g stroke="#d9d2c7" stroke-opacity=".05"><path d="M0 0V900"/><path d="M100 0V900"/><path d="M200 0V900"/><path d="M300 0V900"/><path d="M400 0V900"/><path d="M500 0V900"/><path d="M600 0V900"/><path d="M700 0V900"/><path d="M800 0V900"/><path d="M900 0V900"/><path d="M1000 0V900"/><path d="M1100 0V900"/><path d="M1200 0V900"/><path d="M1300 0V900"/><path d="M1400 0V900"/><path d="M1500 0V900"/><path d="M1600 0V900"/><path d="M0 0H1600"/><path d="M0 100H1600"/><path d="M0 200H1600"/><path d="M0 300H1600"/><path d="M0 400H1600"/><path d="M0 500H1600"/><path d="M0 600H1600"/><path d="M0 700H1600"/><path d="M0 800H1600"/><path d="M0 900H1600"/></g><path d="M700 157 L1480 157 L1480 143 L700 143Z" fill="#ff7a1a" fill-opacity=".06" stroke="#ff7a1a" stroke-opacity=".75" stroke-width="1.3"/><path d="M700 150L1480 150" stroke="#ff7a1a" stroke-opacity=".45" stroke-dasharray="14 10"/><path d="M680 176 L570 196 L570 104 L680 124Z" fill="none" stroke="#d9d2c7" stroke-opacity=".3" stroke-dasharray="5 5"/><path d="M1500 176 L1610 196 L1610 104 L1500 124Z" fill="none" stroke="#d9d2c7" stroke-opacity=".3" stroke-dasharray="5 5"/><text x="650" y="154" font-family="monospace" font-size="13" fill="#ff7a1a" fill-opacity=".85">9L</text><text x="1498" y="154" font-family="monospace" font-size="13" fill="#ff7a1a" fill-opacity=".85">27R</text><path d="M760 267 L1500 267 L1500 253 L760 253Z" fill="#ff7a1a" fill-opacity=".06" stroke="#ff7a1a" stroke-opacity=".75" stroke-width="1.3"/><path d="M760 260L1500 260" stroke="#ff7a1a" stroke-opacity=".45" stroke-dasharray="14 10"/><path d="M740 286 L630 306 L630 214 L740 234Z" fill="none" stroke="#d9d2c7" stroke-opacity=".3" stroke-dasharray="5 5"/><path d="M1520 286 L1630 306 L1630 214 L1520 234Z" fill="none" stroke="#d9d2c7" stroke-opacity=".3" stroke-dasharray="5 5"/><text x="710" y="264" font-family="monospace" font-size="13" fill="#ff7a1a" fill-opacity=".85">9C</text><text x="1518" y="264" font-family="monospace" font-size="13" fill="#ff7a1a" fill-opacity=".85">27C</text><path d="M740 617 L1500 617 L1500 603 L740 603Z" fill="#ff7a1a" fill-opacity=".06" stroke="#ff7a1a" stroke-opacity=".75" stroke-width="1.3"/><path d="M740 610L1500 610" stroke="#ff7a1a" stroke-opacity=".45" stroke-dasharray="14 10"/><path d="M720 636 L610 656 L610 564 L720 584Z" fill="none" stroke="#d9d2c7" stroke-opacity=".3" stroke-dasharray="5 5"/><path d="M1520 636 L1630 656 L1630 564 L1520 584Z" fill="none" stroke="#d9d2c7" stroke-opacity=".3" stroke-dasharray="5 5"/><text x="690" y="614" font-family="monospace" font-size="13" fill="#ff7a1a" fill-opacity=".85">10L</text><text x="1518" y="614" font-family="monospace" font-size="13" fill="#ff7a1a" fill-opacity=".85">28R</text><path d="M800 747 L1460 747 L1460 733 L800 733Z" fill="#ff7a1a" fill-opacity=".06" stroke="#ff7a1a" stroke-opacity=".75" stroke-width="1.3"/><path d="M800 740L1460 740" stroke="#ff7a1a" stroke-opacity=".45" stroke-dasharray="14 10"/><path d="M780 766 L670 786 L670 694 L780 714Z" fill="none" stroke="#d9d2c7" stroke-opacity=".3" stroke-dasharray="5 5"/><path d="M1480 766 L1590 786 L1590 694 L1480 714Z" fill="none" stroke="#d9d2c7" stroke-opacity=".3" stroke-dasharray="5 5"/><text x="750" y="744" font-family="monospace" font-size="13" fill="#ff7a1a" fill-opacity=".85">10C</text><text x="1478" y="744" font-family="monospace" font-size="13" fill="#ff7a1a" fill-opacity=".85">28C</text><path d="M824.2 824.3 L1334.2 334.3 L1325.8 325.7 L815.8 815.7Z" fill="#ff7a1a" fill-opacity=".06" stroke="#ff7a1a" stroke-opacity=".75" stroke-width="1.3"/><path d="M820 820L1330 330" stroke="#ff7a1a" stroke-opacity=".45" stroke-dasharray="14 10"/><path d="M823.6 852.6 L758.1 943.2 L694.4 876.9 L787.6 815.1Z" fill="none" stroke="#d9d2c7" stroke-opacity=".3" stroke-dasharray="5 5"/><path d="M1362.4 334.9 L1455.6 273.1 L1391.9 206.8 L1326.4 297.4Z" fill="none" stroke="#d9d2c7" stroke-opacity=".3" stroke-dasharray="5 5"/><text x="781.2" y="851.7" font-family="monospace" font-size="13" fill="#ff7a1a" fill-opacity=".85">4L</text><text x="1343" y="321.5" font-family="monospace" font-size="13" fill="#ff7a1a" fill-opacity=".85">22R</text><g fill="none" stroke="#d9d2c7" stroke-opacity=".35" stroke-width="1.2"><path d="M710 184H1470"/><path d="M770 226H1490"/><path d="M750 644H1490"/><path d="M810 706H1450"/><path d="M900 184V576M1120 226V644M1360 184V706"/></g><g fill="#d9d2c7" fill-opacity=".04" stroke="#d9d2c7" stroke-opacity=".45" stroke-width="1.2"><rect x="980" y="360" width="300" height="150" rx="4"/><path d="M1010 360V300M1010 510V570"/><path d="M1070 360V300M1070 510V570"/><path d="M1130 360V300M1130 510V570"/><path d="M1190 360V300M1190 510V570"/><path d="M1250 360V300M1250 510V570"/><path d="M980 435H930M1280 435H1340"/></g>
      <g stroke="#d9d2c7" stroke-opacity=".45" fill="none">
        <path d="M760 300H1500M760 292V308M1500 292V308"/>
        <path d="M1530 60V110M1530 60L1520 84M1530 60L1540 84"/>
        <rect x="1250" y="800" width="330" height="84"/><path d="M1250 828H1580M1420 828V884"/>
      </g>
      <g font-family="monospace" fill="#d9d2c7" fill-opacity=".7">
        <text x="1080" y="318" font-size="12">7,400 FT</text>
        <text x="1523" y="52" font-size="12">N</text>
        <text x="1262" y="820" font-size="12">AIRPORT LAYOUT PLAN</text>
        <text x="1262" y="852" font-size="11">ULTIMATE AIRFIELD</text><text x="1432" y="852" font-size="11">SHEET 3 OF 12</text>
        <text x="1262" y="874" font-size="11">SCALE 1" = 1,000'</text><text x="1432" y="874" font-size="11">ILLUSTRATIVE</text>
      </g></svg>